<svg width="98" height="98" viewBox="0 0 98 98" fill="none" xmlns="http://www.w3.org/2000/svg">
<g clip-path="url(#clip0_2001_2)">
<path d="M1 65.38H33.19M1 65.38V89.571C1 91.6927 1.84285 93.7276 3.34315 95.2279C4.84344 96.7281 6.87827 97.571 9 97.571H33.19M1 65.38V33.19M33.19 65.38V97.571M33.19 65.38H65.38M33.19 65.38V33.19M33.19 97.571H65.381M65.38 65.38H97.571M65.38 65.38L65.381 65.381M65.38 65.38L65.381 97.571M65.38 65.38V33.19M97.571 65.38V89.571C97.571 91.6927 96.7281 93.7276 95.2279 95.2279C93.7276 96.7281 91.6927 97.571 89.571 97.571H65.381M97.571 65.38V33.19M97.571 65.38L65.381 65.381M65.381 97.571V65.381M65.381 65.381L65.38 33.19M1 33.19H33.19M1 33.19V9C1 6.87827 1.84285 4.84344 3.34315 3.34315C4.84344 1.84285 6.87827 1 9 1H33.19M33.19 33.19V1M33.19 33.19H65.38M33.19 1H65.38M65.38 33.19H97.571M65.38 33.19V1M97.571 33.19V9C97.571 6.87827 96.7281 4.84344 95.2279 3.34315C93.7276 1.84285 91.6927 1 89.571 1H65.38" stroke="#D1D5DB" stroke-width="0.5"/>
<path d="M22.384 75.31C20.8547 75.31 19.7593 74.9793 19.098 74.318C18.4367 73.6153 18.106 72.3133 18.106 70.412C18.106 69.1307 18.23 67.5807 18.478 65.762C18.726 63.9433 19.16 61.1947 19.78 57.516C19.8627 57.02 20.1933 55.0153 20.772 51.502C21.3507 47.9473 21.8673 44.2273 22.322 40.342C22.7353 37.0353 22.942 34.5553 22.942 32.902C22.942 31.042 22.26 30.112 20.896 30.112C19.8627 30.112 18.5607 30.67 16.99 31.786C15.4607 32.8607 13.8073 34.5967 12.03 36.994C11.4513 37.7793 10.8107 38.172 10.108 38.172C9.52933 38.172 9.01267 37.9033 8.558 37.366C8.14467 36.7873 7.938 36.1467 7.938 35.444C7.938 34.7413 8.062 34.08 8.31 33.46C8.558 32.7987 9.01267 32.0133 9.674 31.104C11.6993 28.3347 13.952 26.206 16.432 24.718C18.912 23.1887 21.516 22.424 24.244 22.424C26.5173 22.424 28.212 23.1267 29.328 24.532C30.4853 25.9373 31.064 27.9833 31.064 30.67C31.064 33.0673 30.7333 36.5393 30.072 41.086C32.1387 34.9687 34.7633 30.3393 37.946 27.198C41.1287 24.0153 44.8693 22.424 49.168 22.424C52.5573 22.424 55.0993 23.3953 56.794 25.338C58.53 27.2393 59.398 29.802 59.398 33.026C59.398 34.8447 59.1293 37.056 58.592 39.66L54.81 57.392C54.3967 59.4587 54.19 61.236 54.19 62.724C54.19 64.46 54.5827 65.762 55.368 66.63C56.1947 67.498 57.3313 67.932 58.778 67.932C60.142 67.932 61.4647 67.4773 62.746 66.568C64.0687 65.6587 65.6187 64.15 67.396 62.042C67.892 61.4633 68.45 61.174 69.07 61.174C69.6073 61.174 70.0207 61.422 70.31 61.918C70.6407 62.414 70.806 63.096 70.806 63.964C70.806 65.576 70.4133 66.8573 69.628 67.808C67.4787 70.412 65.35 72.3133 63.242 73.512C61.134 74.7107 58.9227 75.31 56.608 75.31C53.0947 75.31 50.346 74.2767 48.362 72.21C46.378 70.102 45.386 67.2913 45.386 63.778C45.386 62.414 45.4893 60.926 45.696 59.314C45.944 57.702 46.3367 55.656 46.874 53.176L49.354 41.83C49.4367 41.458 49.5813 40.7967 49.788 39.846C49.9947 38.8953 50.16 38.0067 50.284 37.18C50.408 36.312 50.47 35.4647 50.47 34.638C50.47 33.3153 50.098 32.2613 49.354 31.476C48.61 30.6907 47.556 30.298 46.192 30.298C43.712 30.298 41.232 31.6207 38.752 34.266C36.272 36.9113 33.978 41.1893 31.87 47.1C29.762 52.9693 28.1087 60.492 26.91 69.668C26.6207 71.776 26.1867 73.2433 25.608 74.07C25.0707 74.8967 23.996 75.31 22.384 75.31Z" fill="url(#paint0_linear_2001_2)"/>
<path d="M82.63 39.1955L83.209 39.2795C84.109 39.422 85.117 39.6605 85.7365 40.28C86.3575 40.901 86.596 41.909 86.7385 42.809L86.8225 43.3865C87.0115 44.7515 87.061 46.541 86.7385 48.527C86.1025 52.4465 84.016 57.122 78.7765 60.7445C78.7524 61.0123 78.7439 61.2812 78.751 61.55L78.7765 62.3645C78.7915 62.9075 78.7825 63.449 78.6325 63.9695C78.3475 64.9595 77.332 65.612 76.3825 66.08L75.9175 66.3005L75.3175 66.5645L74.908 66.7295C73.8475 67.1345 72.568 67.418 71.731 66.5795C71.3515 66.2 71.176 65.684 71.035 65.168L70.966 64.91C70.726 63.9995 70.4545 63.095 70.1155 62.219C70.0219 62.3327 69.9228 62.4419 69.8185 62.546C69.001 63.362 67.8925 63.773 66.784 64.091L66.0475 64.2935L65.3125 64.4885L64.5955 64.6685L63.9475 64.8185L63.172 64.9835L62.6875 65.078C62.4458 65.1231 62.1968 65.1087 61.9619 65.0359C61.7271 64.9631 61.5135 64.8343 61.3396 64.6604C61.1658 64.4865 61.0369 64.273 60.9641 64.0381C60.8914 63.8032 60.8769 63.5542 60.922 63.3125L61.0885 62.486L61.282 61.619L61.468 60.854L61.8055 59.5865C62.14 58.3565 62.5465 57.089 63.4555 56.1815L63.604 56.039L62.4595 55.628L61.309 55.232C60.6355 55.01 59.9275 54.776 59.4385 54.287C58.5445 53.393 58.924 51.998 59.3695 50.9015L59.6185 50.321L59.824 49.8695C60.2995 48.8585 60.9745 47.6945 62.0485 47.3855C62.569 47.2355 63.109 47.2265 63.6535 47.24L64.468 47.267C64.738 47.2715 65.008 47.267 65.2735 47.2415C68.8945 42.002 73.5715 39.9155 77.491 39.2795C79.1906 38.9993 80.9222 38.971 82.63 39.1955ZM77.971 42.2405C74.674 42.776 70.6675 44.5415 67.5415 49.244C67.162 49.814 66.5215 50.0855 65.869 50.189C65.5 50.249 65.128 50.264 64.7545 50.264L63.634 50.2475C63.448 50.2475 63.2605 50.2475 63.0745 50.2565C62.6185 50.8625 62.3005 51.5825 62.062 52.298L64.312 53.1155L65.2375 53.465C66.9295 54.128 68.5675 54.9305 69.8275 56.1905C71.95 58.313 73.0285 61.0895 73.8085 63.926C74.4925 63.686 75.1795 63.38 75.7615 62.9435L75.7705 62.384L75.754 61.265C75.754 60.893 75.769 60.521 75.829 60.149C75.931 59.4965 76.204 58.856 76.774 58.4765C81.4765 55.3505 83.242 51.344 83.7775 48.047C84.0475 46.382 84.0025 44.894 83.851 43.7975C83.7929 43.3426 83.696 42.8935 83.5615 42.455C83.123 42.321 82.6739 42.2247 82.219 42.167C80.807 41.9839 79.3757 42.0077 77.971 42.2405ZM65.575 58.3025C65.05 58.937 64.8055 59.7695 64.609 60.5945L64.447 61.2965L64.3645 61.6355L65.4055 61.391C66.2305 61.196 67.0645 60.9485 67.6975 60.4235C67.9788 60.142 68.1367 59.7604 68.1366 59.3625C68.1365 58.9646 67.9783 58.583 67.6968 58.3018C67.4153 58.0205 67.0337 57.8626 66.6358 57.8627C66.2379 57.8628 65.8563 58.021 65.575 58.3025ZM74.0605 47.6975C74.3391 47.4189 74.6698 47.1978 75.0337 47.047C75.3977 46.8962 75.7878 46.8185 76.1818 46.8184C76.5757 46.8184 76.9659 46.8959 77.3299 47.0466C77.6939 47.1973 78.0247 47.4182 78.3033 47.6968C78.5819 47.9753 78.803 48.306 78.9538 48.6699C79.1046 49.0339 79.1823 49.424 79.1824 49.818C79.1824 50.2119 79.1049 50.6021 78.9542 50.9661C78.8035 51.3301 78.5826 51.6609 78.304 51.9395C77.7413 52.5022 76.9781 52.8184 76.1823 52.8184C75.3865 52.8184 74.6233 52.5022 74.0605 51.9395C73.4978 51.3768 73.1817 50.6136 73.1817 49.8178C73.1817 49.0219 73.4978 48.2587 74.0605 47.696V47.6975Z" fill="url(#paint1_linear_2001_2)"/>
</g>
<defs>
<linearGradient id="paint0_linear_2001_2" x1="34.9608" y1="-6" x2="36.9974" y2="102.972" gradientUnits="userSpaceOnUse">
<stop stop-color="#984FF6"/>
<stop offset="1" stop-color="#AE98F0"/>
</linearGradient>
<linearGradient id="paint1_linear_2001_2" x1="72.9339" y1="39.0459" x2="72.9339" y2="67.1221" gradientUnits="userSpaceOnUse">
<stop stop-color="#984FF6"/>
<stop offset="1" stop-color="#AE98F0"/>
</linearGradient>
<clipPath id="clip0_2001_2">
<rect width="98" height="98" fill="white"/>
</clipPath>
</defs>
</svg>
